<mxfile host="65bd71144e">
    <diagram name="ページ1" id="Caxo69pScAz0g_FV7Efw">
        <mxGraphModel dx="784" dy="626" grid="1" gridSize="10" guides="1" tooltips="1" connect="1" arrows="1" fold="1" page="1" pageScale="1" pageWidth="827" pageHeight="1169" math="0" shadow="0">
            <root>
                <mxCell id="0"/>
                <mxCell id="1" parent="0"/>
                <mxCell id="27" value="" style="group" vertex="1" connectable="0" parent="1">
                    <mxGeometry x="120" y="80" width="160" height="140" as="geometry"/>
                </mxCell>
                <mxCell id="8" value="Employee" style="swimlane;fontStyle=1;align=center;verticalAlign=top;childLayout=stackLayout;horizontal=1;startSize=26;horizontalStack=0;resizeParent=1;resizeParentMax=0;resizeLast=0;collapsible=1;marginBottom=0;fillColor=default;fontColor=#ffffff;strokeColor=default;swimlaneFillColor=default;" vertex="1" parent="27">
                    <mxGeometry width="160" height="70" as="geometry">
                        <mxRectangle x="50" y="100" width="100" height="30" as="alternateBounds"/>
                    </mxGeometry>
                </mxCell>
                <mxCell id="9" value="- mainJob: Company&#10;- secondJob: Company" style="text;strokeColor=none;fillColor=none;align=left;verticalAlign=top;spacingLeft=4;spacingRight=4;overflow=hidden;rotatable=0;points=[[0,0.5],[1,0.5]];portConstraint=eastwest;" vertex="1" parent="8">
                    <mxGeometry y="26" width="160" height="44" as="geometry"/>
                </mxCell>
                <mxCell id="24" value="+ Employee(&#10;  mainJob: Company&#10;  secondJob: Company&#10;)" style="text;strokeColor=default;fillColor=default;align=left;verticalAlign=top;spacingLeft=4;spacingRight=4;overflow=hidden;rotatable=0;points=[[0,0.5],[1,0.5]];portConstraint=eastwest;swimlaneFillColor=default;" vertex="1" parent="27">
                    <mxGeometry y="70" width="160" height="70" as="geometry"/>
                </mxCell>
                <mxCell id="29" value="" style="group;strokeColor=default;fillColor=default;" vertex="1" connectable="0" parent="1">
                    <mxGeometry x="414" y="80" width="250" height="174" as="geometry"/>
                </mxCell>
                <mxCell id="30" value="" style="group" vertex="1" connectable="0" parent="29">
                    <mxGeometry width="250" height="174" as="geometry"/>
                </mxCell>
                <mxCell id="20" value="Company" style="swimlane;fontStyle=1;align=center;verticalAlign=top;childLayout=stackLayout;horizontal=1;startSize=26;horizontalStack=0;resizeParent=1;resizeParentMax=0;resizeLast=0;collapsible=1;marginBottom=0;" vertex="1" parent="30">
                    <mxGeometry width="250" height="100" as="geometry"/>
                </mxCell>
                <mxCell id="21" value="- employees: List[Employee]&#10;- boardMembers: List[BoardMember]&#10;- parentCompany: Company&#10;- subsidiaries: List[Company]" style="text;strokeColor=none;fillColor=none;align=left;verticalAlign=top;spacingLeft=4;spacingRight=4;overflow=hidden;rotatable=0;points=[[0,0.5],[1,0.5]];portConstraint=eastwest;" vertex="1" parent="20">
                    <mxGeometry y="26" width="250" height="74" as="geometry"/>
                </mxCell>
                <mxCell id="28" value="+ addEmployee(Employee) : void&#10;+ setBoardMember(BoardMember, int) : void&#10;+ setParentCompany(Company): void&#10;+ addSubsidiary(Company): void" style="text;strokeColor=none;fillColor=none;align=left;verticalAlign=top;spacingLeft=4;spacingRight=4;overflow=hidden;rotatable=0;points=[[0,0.5],[1,0.5]];portConstraint=eastwest;" vertex="1" parent="30">
                    <mxGeometry y="100" width="250" height="74" as="geometry"/>
                </mxCell>
                <mxCell id="31" value="" style="group" vertex="1" connectable="0" parent="1">
                    <mxGeometry x="430" y="330" width="220" height="90" as="geometry"/>
                </mxCell>
                <mxCell id="32" value="BoardMember" style="swimlane;fontStyle=1;align=center;verticalAlign=top;childLayout=stackLayout;horizontal=1;startSize=26;horizontalStack=0;resizeParent=1;resizeParentMax=0;resizeLast=0;collapsible=1;marginBottom=0;fillColor=default;fontColor=#ffffff;strokeColor=default;swimlaneFillColor=default;" vertex="1" parent="31">
                    <mxGeometry width="220" height="51.5" as="geometry">
                        <mxRectangle x="50" y="100" width="100" height="30" as="alternateBounds"/>
                    </mxGeometry>
                </mxCell>
                <mxCell id="33" value="- companiesManaging: List[Company]" style="text;strokeColor=none;fillColor=none;align=left;verticalAlign=top;spacingLeft=4;spacingRight=4;overflow=hidden;rotatable=0;points=[[0,0.5],[1,0.5]];portConstraint=eastwest;" vertex="1" parent="32">
                    <mxGeometry y="26" width="220" height="25.5" as="geometry"/>
                </mxCell>
                <mxCell id="34" value="+ setCompany(Company, int) : void" style="text;strokeColor=default;fillColor=default;align=left;verticalAlign=top;spacingLeft=4;spacingRight=4;overflow=hidden;rotatable=0;points=[[0,0.5],[1,0.5]];portConstraint=eastwest;swimlaneFillColor=default;" vertex="1" parent="31">
                    <mxGeometry y="51.5" width="220" height="38.5" as="geometry"/>
                </mxCell>
                <mxCell id="36" value="" style="endArrow=classic;startArrow=classic;html=1;fontSize=11;exitX=0.999;exitY=0.985;exitDx=0;exitDy=0;exitPerimeter=0;" edge="1" parent="1" source="9">
                    <mxGeometry width="50" height="50" relative="1" as="geometry">
                        <mxPoint x="380" y="370" as="sourcePoint"/>
                        <mxPoint x="414" y="150" as="targetPoint"/>
                    </mxGeometry>
                </mxCell>
                <mxCell id="38" value="1 ...2" style="edgeLabel;html=1;align=center;verticalAlign=middle;resizable=0;points=[];fontSize=11;" vertex="1" connectable="0" parent="36">
                    <mxGeometry x="0.5467" y="-1" relative="1" as="geometry">
                        <mxPoint x="6" y="-11" as="offset"/>
                    </mxGeometry>
                </mxCell>
                <mxCell id="39" value="*" style="edgeLabel;html=1;align=center;verticalAlign=middle;resizable=0;points=[];fontSize=11;" vertex="1" connectable="0" parent="36">
                    <mxGeometry x="-0.7653" relative="1" as="geometry">
                        <mxPoint y="-9" as="offset"/>
                    </mxGeometry>
                </mxCell>
                <mxCell id="37" value="" style="endArrow=classic;startArrow=classic;html=1;fontSize=11;exitX=0.5;exitY=0;exitDx=0;exitDy=0;entryX=0.5;entryY=1.014;entryDx=0;entryDy=0;entryPerimeter=0;" edge="1" parent="1" source="32">
                    <mxGeometry width="50" height="50" relative="1" as="geometry">
                        <mxPoint x="539.46" y="330" as="sourcePoint"/>
                        <mxPoint x="540" y="255.036" as="targetPoint"/>
                    </mxGeometry>
                </mxCell>
                <mxCell id="43" value="1 ...5" style="edgeLabel;html=1;align=center;verticalAlign=middle;resizable=0;points=[];fontSize=11;" vertex="1" connectable="0" parent="37">
                    <mxGeometry x="0.7185" y="2" relative="1" as="geometry">
                        <mxPoint x="-18" y="4" as="offset"/>
                    </mxGeometry>
                </mxCell>
                <mxCell id="44" value="1 ...10" style="text;html=1;align=center;verticalAlign=middle;resizable=0;points=[];autosize=1;strokeColor=none;fillColor=none;fontSize=11;" vertex="1" parent="1">
                    <mxGeometry x="495" y="300" width="50" height="30" as="geometry"/>
                </mxCell>
            </root>
        </mxGraphModel>
    </diagram>
</mxfile>